<svg width="1980" height="1083" viewBox="0 0 1980 1083" fill="none" xmlns="http://www.w3.org/2000/svg">
<rect width="1980" height="1080" fill="url(#paint0_radial_17_2)"/>
<g filter="url(#filter0_f_17_2)">
<path d="M1515.63 994.465C1515.82 993.509 1517.18 993.509 1517.37 994.465C1517.45 994.882 1517.82 995.182 1518.24 995.182H1518.42C1519.36 995.182 1519.88 996.275 1519.28 996.998L1518.5 997.949C1518.27 998.225 1518.17 998.589 1518.24 998.941L1518.54 1000.45C1518.7 1001.27 1517.66 1001.76 1517.12 1001.12C1516.8 1000.73 1516.2 1000.73 1515.88 1001.12C1515.34 1001.76 1514.3 1001.27 1514.46 1000.45L1514.76 998.941C1514.83 998.589 1514.73 998.225 1514.5 997.949L1513.72 996.998C1513.12 996.275 1513.64 995.182 1514.58 995.182H1514.76C1515.18 995.182 1515.55 994.882 1515.63 994.465Z" fill="#E7EB2B"/>
</g>
<g filter="url(#filter1_f_17_2)">
<path d="M1444.1 1027.63C1444.15 1027.15 1444.85 1027.15 1444.9 1027.63C1444.95 1028.01 1445.44 1028.13 1445.65 1027.8C1445.89 1027.41 1446.5 1027.68 1446.37 1028.13L1446.13 1028.97C1446.02 1029.35 1446.37 1029.71 1446.76 1029.62C1447.31 1029.51 1447.68 1030.18 1447.26 1030.56L1446.8 1030.97C1446.49 1031.26 1446.49 1031.74 1446.8 1032.03L1447.26 1032.44C1447.68 1032.82 1447.31 1033.49 1446.76 1033.38C1446.37 1033.29 1446.02 1033.65 1446.13 1034.03L1446.37 1034.87C1446.5 1035.32 1445.89 1035.59 1445.65 1035.2C1445.44 1034.87 1444.95 1034.99 1444.9 1035.37C1444.85 1035.85 1444.15 1035.85 1444.1 1035.37C1444.05 1034.99 1443.56 1034.87 1443.35 1035.2C1443.11 1035.59 1442.5 1035.32 1442.63 1034.87L1442.87 1034.03C1442.98 1033.65 1442.63 1033.29 1442.24 1033.38C1441.69 1033.49 1441.32 1032.82 1441.74 1032.44L1442.2 1032.03C1442.51 1031.74 1442.51 1031.26 1442.2 1030.97L1441.74 1030.56C1441.32 1030.18 1441.69 1029.51 1442.24 1029.62C1442.63 1029.71 1442.98 1029.35 1442.87 1028.97L1442.63 1028.13C1442.5 1027.68 1443.11 1027.41 1443.35 1027.8C1443.56 1028.13 1444.05 1028.01 1444.1 1027.63Z" fill="#3DEEF9"/>
</g>
<g filter="url(#filter2_f_17_2)">
<path d="M1854.5 551L1855.51 556.182H1858.78L1856.13 559.385L1857.15 564.568L1854.5 561.365L1851.85 564.568L1852.87 559.385L1850.22 556.182H1853.49L1854.5 551Z" fill="white"/>
</g>
<g filter="url(#filter3_f_17_2)">
<path d="M1850.5 658L1851.51 663.182H1854.78L1852.13 666.385L1853.15 671.568L1850.5 668.365L1847.85 671.568L1848.87 666.385L1846.22 663.182H1849.49L1850.5 658Z" fill="white"/>
</g>
<g filter="url(#filter4_f_17_2)">
<path d="M1679.63 622.465C1679.82 621.509 1681.18 621.509 1681.37 622.465C1681.45 622.882 1681.82 623.182 1682.24 623.182H1682.42C1683.36 623.182 1683.88 624.275 1683.28 624.998L1682.5 625.949C1682.27 626.225 1682.17 626.589 1682.24 626.941L1682.54 628.45C1682.7 629.272 1681.66 629.764 1681.12 629.118C1680.8 628.727 1680.2 628.727 1679.88 629.118C1679.34 629.764 1678.3 629.272 1678.46 628.45L1678.76 626.941C1678.83 626.589 1678.73 626.225 1678.5 625.949L1677.72 624.998C1677.12 624.275 1677.64 623.182 1678.58 623.182H1678.76C1679.18 623.182 1679.55 622.882 1679.63 622.465Z" fill="#FF00D6"/>
</g>
<g filter="url(#filter5_f_17_2)">
<path d="M1442.5 585L1443.51 590.182H1446.78L1444.13 593.385L1445.15 598.568L1442.5 595.365L1439.85 598.568L1440.87 593.385L1438.22 590.182H1441.49L1442.5 585Z" fill="#FFF500"/>
</g>
<g filter="url(#filter6_f_17_2)">
<path d="M1370.5 619L1371.51 624.182H1374.78L1372.13 627.385L1373.15 632.568L1370.5 629.365L1367.85 632.568L1368.87 627.385L1366.22 624.182H1369.49L1370.5 619Z" fill="#0075FF"/>
</g>
<g filter="url(#filter7_f_17_2)">
<path d="M1780.5 146L1781.51 151.182H1784.78L1782.13 154.385L1783.15 159.568L1780.5 156.365L1777.85 159.568L1778.87 154.385L1776.22 151.182H1779.49L1780.5 146Z" fill="white"/>
</g>
<g filter="url(#filter8_f_17_2)">
<path d="M1776.5 253L1777.51 258.182H1780.78L1778.13 261.385L1779.15 266.568L1776.5 263.365L1773.85 266.568L1774.87 261.385L1772.22 258.182H1775.49L1776.5 253Z" fill="white"/>
</g>
<g filter="url(#filter9_f_17_2)">
<path d="M1606.5 213L1607.51 218.182H1610.78L1608.13 221.385L1609.15 226.568L1606.5 223.365L1603.85 226.568L1604.87 221.385L1602.22 218.182H1605.49L1606.5 213Z" fill="white"/>
</g>
<g filter="url(#filter10_f_17_2)">
<path d="M739.5 438L740.51 443.182H743.78L741.135 446.385L742.145 451.568L739.5 448.365L736.855 451.568L737.865 446.385L735.22 443.182H738.49L739.5 438Z" fill="#8FFF00"/>
</g>
<g filter="url(#filter11_f_17_2)">
<path d="M667.5 472L668.51 477.182H671.78L669.135 480.385L670.145 485.568L667.5 482.365L664.855 485.568L665.865 480.385L663.22 477.182H666.49L667.5 472Z" fill="#00FFE0"/>
</g>
<g filter="url(#filter12_f_17_2)">
<path d="M1153.5 30L1154.51 35.1824H1157.78L1155.13 38.3853L1156.15 43.5676L1153.5 40.3647L1150.85 43.5676L1151.87 38.3853L1149.22 35.1824H1152.49L1153.5 30Z" fill="white"/>
</g>
<g filter="url(#filter13_f_17_2)">
<path d="M1073.5 106L1074.51 111.182H1077.78L1075.13 114.385L1076.15 119.568L1073.5 116.365L1070.85 119.568L1071.87 114.385L1069.22 111.182H1072.49L1073.5 106Z" fill="white"/>
</g>
<g filter="url(#filter14_f_17_2)">
<path d="M903.5 66L904.51 71.1824H907.78L905.135 74.3853L906.145 79.5676L903.5 76.3647L900.855 79.5676L901.865 74.3853L899.22 71.1824H902.49L903.5 66Z" fill="white"/>
</g>
<g filter="url(#filter15_f_17_2)">
<path d="M985.5 321L986.51 326.182H989.78L987.135 329.385L988.145 334.568L985.5 331.365L982.855 334.568L983.865 329.385L981.22 326.182H984.49L985.5 321Z" fill="white"/>
</g>
<g filter="url(#filter16_f_17_2)">
<path d="M809.5 246L810.51 251.182H813.78L811.135 254.385L812.145 259.568L809.5 256.365L806.855 259.568L807.865 254.385L805.22 251.182H808.49L809.5 246Z" fill="white"/>
</g>
<g filter="url(#filter17_f_17_2)">
<path d="M735.5 45L736.51 50.1824H739.78L737.135 53.3853L738.145 58.5676L735.5 55.3647L732.855 58.5676L733.865 53.3853L731.22 50.1824H734.49L735.5 45Z" fill="white"/>
</g>
<g filter="url(#filter18_f_17_2)">
<path d="M726.5 182L727.51 187.182H730.78L728.135 190.385L729.145 195.568L726.5 192.365L723.855 195.568L724.865 190.385L722.22 187.182H725.49L726.5 182Z" fill="white"/>
</g>
<g filter="url(#filter19_f_17_2)">
<circle cx="1134.5" cy="675.5" r="23.5" fill="#0043EF"/>
</g>
<g filter="url(#filter20_f_17_2)">
<ellipse cx="835.312" cy="755.25" rx="26.2969" ry="25.5" fill="#FF5C00"/>
</g>
<g filter="url(#filter21_f_17_2)">
<ellipse cx="582" cy="253.5" rx="45" ry="41.5" fill="#00FFF0"/>
</g>
<g filter="url(#filter22_f_17_2)">
<path d="M1678.71 163.625C1678.71 171.702 1671.61 178.25 1662.86 178.25C1654.1 178.25 1647 171.702 1647 163.625C1647 155.548 1654.1 149 1662.86 149C1671.61 149 1678.71 155.548 1678.71 163.625Z" fill="#A6EBEF"/>
</g>
<g filter="url(#filter23_f_17_2)">
<ellipse cx="1157.55" cy="238" rx="63" ry="60" fill="#B26D2D"/>
</g>
<g opacity="0.2" filter="url(#filter24_f_17_2)">
<ellipse cx="1158.21" cy="245" rx="180.211" ry="9.75" transform="rotate(7 1158.21 245)" fill="#EA7E00"/>
</g>
<g filter="url(#filter25_f_17_2)">
<circle cx="1072" cy="437" r="10" fill="#B26204"/>
</g>
<g filter="url(#filter26_f_17_2)">
<ellipse cx="556" cy="699.5" rx="70" ry="66.5" fill="#D7904E"/>
<g filter="url(#filter27_f_17_2)">
<ellipse cx="558.5" cy="687" rx="21.5" ry="12" fill="#EE7117"/>
</g>
</g>
<g filter="url(#filter28_f_17_2)">
<ellipse cx="1641.5" cy="541.5" rx="57.5" ry="54.5" fill="#2131C0"/>
</g>
<g filter="url(#filter29_f_17_2)">
<ellipse cx="917" cy="548.5" rx="9" ry="7.5" fill="#463E3E"/>
</g>
<g filter="url(#filter30_f_17_2)">
<path d="M174.5 499L175.51 504.182H178.78L176.135 507.385L177.145 512.568L174.5 509.365L171.855 512.568L172.865 507.385L170.22 504.182H173.49L174.5 499Z" fill="#7FFF00"/>
</g>
<g filter="url(#filter31_f_17_2)">
<path d="M102.5 533L103.51 538.182H106.78L104.135 541.385L105.145 546.568L102.5 543.365L99.855 546.568L100.865 541.385L98.2202 538.182H101.49L102.5 533Z" fill="#FAFF00"/>
</g>
<g filter="url(#filter32_f_17_2)">
<path d="M512.5 61L513.51 66.1824H516.78L514.135 69.3853L515.145 74.5676L512.5 71.3647L509.855 74.5676L510.865 69.3853L508.22 66.1824H511.49L512.5 61Z" fill="#00FFFF"/>
</g>
<g filter="url(#filter33_f_17_2)">
<path d="M347.5 198L348.51 203.182H351.78L349.135 206.385L350.145 211.568L347.5 208.365L344.855 211.568L345.865 206.385L343.22 203.182H346.49L347.5 198Z" fill="#64C01C"/>
</g>
<g filter="url(#filter34_f_17_2)">
<path d="M338.5 127L339.51 132.182H342.78L340.135 135.385L341.145 140.568L338.5 137.365L335.855 140.568L336.865 135.385L334.22 132.182H337.49L338.5 127Z" fill="#00FFFF"/>
</g>
<g filter="url(#filter35_f_17_2)">
<path d="M272.5 142L273.51 147.182H276.78L274.135 150.385L275.145 155.568L272.5 152.365L269.855 155.568L270.865 150.385L268.22 147.182H271.49L272.5 142Z" fill="#FF00D6"/>
</g>
<g filter="url(#filter36_f_17_2)">
<path d="M234.5 106L235.51 111.182H238.78L236.135 114.385L237.145 119.568L234.5 116.365L231.855 119.568L232.865 114.385L230.22 111.182H233.49L234.5 106Z" fill="#FF0000"/>
</g>
<g filter="url(#filter37_f_17_2)">
<path d="M170.5 106L171.51 111.182H174.78L172.135 114.385L173.145 119.568L170.5 116.365L167.855 119.568L168.865 114.385L166.22 111.182H169.49L170.5 106Z" fill="#00FF0A"/>
</g>
<g filter="url(#filter38_f_17_2)">
<path d="M224.63 225.465C224.816 224.509 226.184 224.509 226.37 225.465C226.452 225.882 226.817 226.182 227.241 226.182H227.424C228.363 226.182 228.878 227.275 228.28 227.998L227.495 228.949C227.267 229.225 227.174 229.589 227.243 229.941L227.537 231.45C227.697 232.272 226.655 232.764 226.122 232.118C225.8 231.727 225.2 231.727 224.878 232.118C224.345 232.764 223.303 232.272 223.463 231.45L223.757 229.941C223.826 229.589 223.733 229.225 223.505 228.949L222.72 227.998C222.122 227.275 222.637 226.182 223.576 226.182H223.759C224.183 226.182 224.548 225.882 224.63 225.465Z" fill="#791313"/>
</g>
<g filter="url(#filter39_f_17_2)">
<path d="M239.5 1020L240.51 1025.18H243.78L241.135 1028.39L242.145 1033.57L239.5 1030.36L236.855 1033.57L237.865 1028.39L235.22 1025.18H238.49L239.5 1020Z" fill="white"/>
</g>
<g filter="url(#filter40_f_17_2)">
<path d="M167.5 1054L168.51 1059.18H171.78L169.135 1062.39L170.145 1067.57L167.5 1064.36L164.855 1067.57L165.865 1062.39L163.22 1059.18H166.49L167.5 1054Z" fill="white"/>
</g>
<g filter="url(#filter41_f_17_2)">
<path d="M577.5 581L578.51 586.182H581.78L579.135 589.385L580.145 594.568L577.5 591.365L574.855 594.568L575.865 589.385L573.22 586.182H576.49L577.5 581Z" fill="#A49A9A"/>
</g>
<g filter="url(#filter42_f_17_2)">
<path d="M411.63 722.465C411.816 721.509 413.184 721.509 413.37 722.465C413.452 722.882 413.817 723.182 414.241 723.182H414.424C415.363 723.182 415.878 724.275 415.28 724.998L414.495 725.949C414.267 726.225 414.174 726.589 414.243 726.941L414.537 728.45C414.697 729.272 413.655 729.764 413.122 729.118C412.8 728.727 412.2 728.727 411.878 729.118C411.345 729.764 410.303 729.272 410.463 728.45L410.757 726.941C410.826 726.589 410.733 726.225 410.505 725.949L409.72 724.998C409.122 724.275 409.637 723.182 410.576 723.182H410.759C411.183 723.182 411.548 722.882 411.63 722.465Z" fill="#902D2D"/>
</g>
<g filter="url(#filter43_f_17_2)">
<path d="M402.046 653.926C402.419 652.406 404.581 652.406 404.954 653.926C404.977 654.02 405.009 654.112 405.05 654.2L405.882 655.989C406.5 657.319 405.321 658.778 403.891 658.454C403.634 658.395 403.366 658.395 403.109 658.454C401.679 658.778 400.5 657.319 401.118 655.989L401.95 654.2C401.991 654.112 402.023 654.02 402.046 653.926Z" fill="#3877C1"/>
</g>
<g filter="url(#filter44_f_17_2)">
<path d="M336.63 667.465C336.816 666.509 338.184 666.509 338.37 667.465C338.452 667.882 338.817 668.182 339.241 668.182H339.424C340.363 668.182 340.878 669.275 340.28 669.998L339.495 670.949C339.267 671.225 339.174 671.589 339.243 671.941L339.537 673.45C339.697 674.272 338.655 674.764 338.122 674.118C337.8 673.727 337.2 673.727 336.878 674.118C336.345 674.764 335.303 674.272 335.463 673.45L335.757 671.941C335.826 671.589 335.733 671.225 335.505 670.949L334.72 669.998C334.122 669.275 334.637 668.182 335.576 668.182H335.759C336.183 668.182 336.548 667.882 336.63 667.465Z" fill="#FF0000"/>
</g>
<g filter="url(#filter45_f_17_2)">
<path d="M298.63 631.465C298.816 630.509 300.184 630.509 300.37 631.465C300.452 631.882 300.817 632.182 301.241 632.182H301.424C302.363 632.182 302.878 633.275 302.28 633.998L301.495 634.949C301.267 635.225 301.174 635.589 301.243 635.941L301.537 637.45C301.697 638.272 300.655 638.764 300.122 638.118C299.8 637.727 299.2 637.727 298.878 638.118C298.345 638.764 297.303 638.272 297.463 637.45L297.757 635.941C297.826 635.589 297.733 635.225 297.505 634.949L296.72 633.998C296.122 633.275 296.637 632.182 297.576 632.182H297.759C298.183 632.182 298.548 631.882 298.63 631.465Z" fill="#39DE2A"/>
</g>
<g filter="url(#filter46_f_17_2)">
<path d="M234.63 631.465C234.816 630.509 236.184 630.509 236.37 631.465C236.452 631.882 236.817 632.182 237.241 632.182H237.424C238.363 632.182 238.878 633.275 238.28 633.998L237.495 634.949C237.267 635.225 237.174 635.589 237.243 635.941L237.537 637.45C237.697 638.272 236.655 638.764 236.122 638.118C235.8 637.727 235.2 637.727 234.878 638.118C234.345 638.764 233.303 638.272 233.463 637.45L233.757 635.941C233.826 635.589 233.733 635.225 233.505 634.949L232.72 633.998C232.122 633.275 232.637 632.182 233.576 632.182H233.759C234.183 632.182 234.548 631.882 234.63 631.465Z" fill="#00E0FF"/>
</g>
<g filter="url(#filter47_f_17_2)">
<path d="M290.5 742L291.51 747.182H294.78L292.135 750.385L293.145 755.568L290.5 752.365L287.855 755.568L288.865 750.385L286.22 747.182H289.49L290.5 742Z" fill="#33FF00"/>
</g>
<g filter="url(#filter48_f_17_2)">
<path d="M263.5 178L264.51 183.182H267.78L265.135 186.385L266.145 191.568L263.5 188.365L260.855 191.568L261.865 186.385L259.22 183.182H262.49L263.5 178Z" fill="white"/>
</g>
<defs>
<filter id="filter0_f_17_2" x="1506.46" y="986.748" width="20.0723" height="21.667" filterUnits="userSpaceOnUse" color-interpolation-filters="sRGB">
<feFlood flood-opacity="0" result="BackgroundImageFix"/>
<feBlend mode="normal" in="SourceGraphic" in2="BackgroundImageFix" result="shape"/>
<feGaussianBlur stdDeviation="3.5" result="effect1_foregroundBlur_17_2"/>
</filter>
<filter id="filter1_f_17_2" x="1434.56" y="1020.27" width="19.8794" height="22.458" filterUnits="userSpaceOnUse" color-interpolation-filters="sRGB">
<feFlood flood-opacity="0" result="BackgroundImageFix"/>
<feBlend mode="normal" in="SourceGraphic" in2="BackgroundImageFix" result="shape"/>
<feGaussianBlur stdDeviation="3.5" result="effect1_foregroundBlur_17_2"/>
</filter>
<filter id="filter2_f_17_2" x="1835.22" y="536" width="38.5596" height="43.5676" filterUnits="userSpaceOnUse" color-interpolation-filters="sRGB">
<feFlood flood-opacity="0" result="BackgroundImageFix"/>
<feBlend mode="normal" in="SourceGraphic" in2="BackgroundImageFix" result="shape"/>
<feGaussianBlur stdDeviation="7.5" result="effect1_foregroundBlur_17_2"/>
</filter>
<filter id="filter3_f_17_2" x="1831.22" y="643" width="38.5596" height="43.5676" filterUnits="userSpaceOnUse" color-interpolation-filters="sRGB">
<feFlood flood-opacity="0" result="BackgroundImageFix"/>
<feBlend mode="normal" in="SourceGraphic" in2="BackgroundImageFix" result="shape"/>
<feGaussianBlur stdDeviation="7.5" result="effect1_foregroundBlur_17_2"/>
</filter>
<filter id="filter4_f_17_2" x="1671.46" y="615.748" width="18.0723" height="19.667" filterUnits="userSpaceOnUse" color-interpolation-filters="sRGB">
<feFlood flood-opacity="0" result="BackgroundImageFix"/>
<feBlend mode="normal" in="SourceGraphic" in2="BackgroundImageFix" result="shape"/>
<feGaussianBlur stdDeviation="3" result="effect1_foregroundBlur_17_2"/>
</filter>
<filter id="filter5_f_17_2" x="1429.22" y="576" width="26.5596" height="31.5676" filterUnits="userSpaceOnUse" color-interpolation-filters="sRGB">
<feFlood flood-opacity="0" result="BackgroundImageFix"/>
<feBlend mode="normal" in="SourceGraphic" in2="BackgroundImageFix" result="shape"/>
<feGaussianBlur stdDeviation="4.5" result="effect1_foregroundBlur_17_2"/>
</filter>
<filter id="filter6_f_17_2" x="1358.22" y="611" width="24.5596" height="29.5676" filterUnits="userSpaceOnUse" color-interpolation-filters="sRGB">
<feFlood flood-opacity="0" result="BackgroundImageFix"/>
<feBlend mode="normal" in="SourceGraphic" in2="BackgroundImageFix" result="shape"/>
<feGaussianBlur stdDeviation="4" result="effect1_foregroundBlur_17_2"/>
</filter>
<filter id="filter7_f_17_2" x="1761.22" y="131" width="38.5596" height="43.5676" filterUnits="userSpaceOnUse" color-interpolation-filters="sRGB">
<feFlood flood-opacity="0" result="BackgroundImageFix"/>
<feBlend mode="normal" in="SourceGraphic" in2="BackgroundImageFix" result="shape"/>
<feGaussianBlur stdDeviation="7.5" result="effect1_foregroundBlur_17_2"/>
</filter>
<filter id="filter8_f_17_2" x="1757.22" y="238" width="38.5596" height="43.5676" filterUnits="userSpaceOnUse" color-interpolation-filters="sRGB">
<feFlood flood-opacity="0" result="BackgroundImageFix"/>
<feBlend mode="normal" in="SourceGraphic" in2="BackgroundImageFix" result="shape"/>
<feGaussianBlur stdDeviation="7.5" result="effect1_foregroundBlur_17_2"/>
</filter>
<filter id="filter9_f_17_2" x="1587.22" y="198" width="38.5596" height="43.5676" filterUnits="userSpaceOnUse" color-interpolation-filters="sRGB">
<feFlood flood-opacity="0" result="BackgroundImageFix"/>
<feBlend mode="normal" in="SourceGraphic" in2="BackgroundImageFix" result="shape"/>
<feGaussianBlur stdDeviation="7.5" result="effect1_foregroundBlur_17_2"/>
</filter>
<filter id="filter10_f_17_2" x="725.22" y="428" width="28.5596" height="33.5676" filterUnits="userSpaceOnUse" color-interpolation-filters="sRGB">
<feFlood flood-opacity="0" result="BackgroundImageFix"/>
<feBlend mode="normal" in="SourceGraphic" in2="BackgroundImageFix" result="shape"/>
<feGaussianBlur stdDeviation="5" result="effect1_foregroundBlur_17_2"/>
</filter>
<filter id="filter11_f_17_2" x="653.22" y="462" width="28.5596" height="33.5676" filterUnits="userSpaceOnUse" color-interpolation-filters="sRGB">
<feFlood flood-opacity="0" result="BackgroundImageFix"/>
<feBlend mode="normal" in="SourceGraphic" in2="BackgroundImageFix" result="shape"/>
<feGaussianBlur stdDeviation="5" result="effect1_foregroundBlur_17_2"/>
</filter>
<filter id="filter12_f_17_2" x="1134.22" y="15" width="38.5596" height="43.5676" filterUnits="userSpaceOnUse" color-interpolation-filters="sRGB">
<feFlood flood-opacity="0" result="BackgroundImageFix"/>
<feBlend mode="normal" in="SourceGraphic" in2="BackgroundImageFix" result="shape"/>
<feGaussianBlur stdDeviation="7.5" result="effect1_foregroundBlur_17_2"/>
</filter>
<filter id="filter13_f_17_2" x="1054.22" y="91" width="38.5596" height="43.5676" filterUnits="userSpaceOnUse" color-interpolation-filters="sRGB">
<feFlood flood-opacity="0" result="BackgroundImageFix"/>
<feBlend mode="normal" in="SourceGraphic" in2="BackgroundImageFix" result="shape"/>
<feGaussianBlur stdDeviation="7.5" result="effect1_foregroundBlur_17_2"/>
</filter>
<filter id="filter14_f_17_2" x="884.22" y="51" width="38.5596" height="43.5676" filterUnits="userSpaceOnUse" color-interpolation-filters="sRGB">
<feFlood flood-opacity="0" result="BackgroundImageFix"/>
<feBlend mode="normal" in="SourceGraphic" in2="BackgroundImageFix" result="shape"/>
<feGaussianBlur stdDeviation="7.5" result="effect1_foregroundBlur_17_2"/>
</filter>
<filter id="filter15_f_17_2" x="966.22" y="306" width="38.5596" height="43.5676" filterUnits="userSpaceOnUse" color-interpolation-filters="sRGB">
<feFlood flood-opacity="0" result="BackgroundImageFix"/>
<feBlend mode="normal" in="SourceGraphic" in2="BackgroundImageFix" result="shape"/>
<feGaussianBlur stdDeviation="7.5" result="effect1_foregroundBlur_17_2"/>
</filter>
<filter id="filter16_f_17_2" x="790.22" y="231" width="38.5596" height="43.5676" filterUnits="userSpaceOnUse" color-interpolation-filters="sRGB">
<feFlood flood-opacity="0" result="BackgroundImageFix"/>
<feBlend mode="normal" in="SourceGraphic" in2="BackgroundImageFix" result="shape"/>
<feGaussianBlur stdDeviation="7.5" result="effect1_foregroundBlur_17_2"/>
</filter>
<filter id="filter17_f_17_2" x="716.22" y="30" width="38.5596" height="43.5676" filterUnits="userSpaceOnUse" color-interpolation-filters="sRGB">
<feFlood flood-opacity="0" result="BackgroundImageFix"/>
<feBlend mode="normal" in="SourceGraphic" in2="BackgroundImageFix" result="shape"/>
<feGaussianBlur stdDeviation="7.5" result="effect1_foregroundBlur_17_2"/>
</filter>
<filter id="filter18_f_17_2" x="707.22" y="167" width="38.5596" height="43.5676" filterUnits="userSpaceOnUse" color-interpolation-filters="sRGB">
<feFlood flood-opacity="0" result="BackgroundImageFix"/>
<feBlend mode="normal" in="SourceGraphic" in2="BackgroundImageFix" result="shape"/>
<feGaussianBlur stdDeviation="7.5" result="effect1_foregroundBlur_17_2"/>
</filter>
<filter id="filter19_f_17_2" x="1103" y="644" width="63" height="63" filterUnits="userSpaceOnUse" color-interpolation-filters="sRGB">
<feFlood flood-opacity="0" result="BackgroundImageFix"/>
<feBlend mode="normal" in="SourceGraphic" in2="BackgroundImageFix" result="shape"/>
<feGaussianBlur stdDeviation="4" result="effect1_foregroundBlur_17_2"/>
</filter>
<filter id="filter20_f_17_2" x="796.016" y="716.75" width="78.5938" height="77" filterUnits="userSpaceOnUse" color-interpolation-filters="sRGB">
<feFlood flood-opacity="0" result="BackgroundImageFix"/>
<feBlend mode="normal" in="SourceGraphic" in2="BackgroundImageFix" result="shape"/>
<feGaussianBlur stdDeviation="6.5" result="effect1_foregroundBlur_17_2"/>
</filter>
<filter id="filter21_f_17_2" x="529" y="204" width="106" height="99" filterUnits="userSpaceOnUse" color-interpolation-filters="sRGB">
<feFlood flood-opacity="0" result="BackgroundImageFix"/>
<feBlend mode="normal" in="SourceGraphic" in2="BackgroundImageFix" result="shape"/>
<feGaussianBlur stdDeviation="4" result="effect1_foregroundBlur_17_2"/>
</filter>
<filter id="filter22_f_17_2" x="1636" y="138" width="53.7109" height="51.25" filterUnits="userSpaceOnUse" color-interpolation-filters="sRGB">
<feFlood flood-opacity="0" result="BackgroundImageFix"/>
<feBlend mode="normal" in="SourceGraphic" in2="BackgroundImageFix" result="shape"/>
<feGaussianBlur stdDeviation="5.5" result="effect1_foregroundBlur_17_2"/>
</filter>
<filter id="filter23_f_17_2" x="1085.55" y="169" width="144" height="138" filterUnits="userSpaceOnUse" color-interpolation-filters="sRGB">
<feFlood flood-opacity="0" result="BackgroundImageFix"/>
<feBlend mode="normal" in="SourceGraphic" in2="BackgroundImageFix" result="shape"/>
<feGaussianBlur stdDeviation="4.5" result="effect1_foregroundBlur_17_2"/>
</filter>
<filter id="filter24_f_17_2" x="960.339" y="201.995" width="395.744" height="86.0115" filterUnits="userSpaceOnUse" color-interpolation-filters="sRGB">
<feFlood flood-opacity="0" result="BackgroundImageFix"/>
<feBlend mode="normal" in="SourceGraphic" in2="BackgroundImageFix" result="shape"/>
<feGaussianBlur stdDeviation="9.5" result="effect1_foregroundBlur_17_2"/>
</filter>
<filter id="filter25_f_17_2" x="1053" y="418" width="38" height="38" filterUnits="userSpaceOnUse" color-interpolation-filters="sRGB">
<feFlood flood-opacity="0" result="BackgroundImageFix"/>
<feBlend mode="normal" in="SourceGraphic" in2="BackgroundImageFix" result="shape"/>
<feGaussianBlur stdDeviation="4.5" result="effect1_foregroundBlur_17_2"/>
</filter>
<filter id="filter26_f_17_2" x="477" y="624" width="158" height="151" filterUnits="userSpaceOnUse" color-interpolation-filters="sRGB">
<feFlood flood-opacity="0" result="BackgroundImageFix"/>
<feBlend mode="normal" in="SourceGraphic" in2="BackgroundImageFix" result="shape"/>
<feGaussianBlur stdDeviation="4.5" result="effect1_foregroundBlur_17_2"/>
</filter>
<filter id="filter27_f_17_2" x="520" y="658" width="77" height="58" filterUnits="userSpaceOnUse" color-interpolation-filters="sRGB">
<feFlood flood-opacity="0" result="BackgroundImageFix"/>
<feBlend mode="normal" in="SourceGraphic" in2="BackgroundImageFix" result="shape"/>
<feGaussianBlur stdDeviation="8.5" result="effect1_foregroundBlur_17_2"/>
</filter>
<filter id="filter28_f_17_2" x="1575" y="478" width="133" height="127" filterUnits="userSpaceOnUse" color-interpolation-filters="sRGB">
<feFlood flood-opacity="0" result="BackgroundImageFix"/>
<feBlend mode="normal" in="SourceGraphic" in2="BackgroundImageFix" result="shape"/>
<feGaussianBlur stdDeviation="4.5" result="effect1_foregroundBlur_17_2"/>
</filter>
<filter id="filter29_f_17_2" x="899" y="532" width="36" height="33" filterUnits="userSpaceOnUse" color-interpolation-filters="sRGB">
<feFlood flood-opacity="0" result="BackgroundImageFix"/>
<feBlend mode="normal" in="SourceGraphic" in2="BackgroundImageFix" result="shape"/>
<feGaussianBlur stdDeviation="4.5" result="effect1_foregroundBlur_17_2"/>
</filter>
<filter id="filter30_f_17_2" x="162.22" y="491" width="24.5596" height="29.5676" filterUnits="userSpaceOnUse" color-interpolation-filters="sRGB">
<feFlood flood-opacity="0" result="BackgroundImageFix"/>
<feBlend mode="normal" in="SourceGraphic" in2="BackgroundImageFix" result="shape"/>
<feGaussianBlur stdDeviation="4" result="effect1_foregroundBlur_17_2"/>
</filter>
<filter id="filter31_f_17_2" x="83.2202" y="518" width="38.5596" height="43.5676" filterUnits="userSpaceOnUse" color-interpolation-filters="sRGB">
<feFlood flood-opacity="0" result="BackgroundImageFix"/>
<feBlend mode="normal" in="SourceGraphic" in2="BackgroundImageFix" result="shape"/>
<feGaussianBlur stdDeviation="7.5" result="effect1_foregroundBlur_17_2"/>
</filter>
<filter id="filter32_f_17_2" x="493.22" y="46" width="38.5596" height="43.5676" filterUnits="userSpaceOnUse" color-interpolation-filters="sRGB">
<feFlood flood-opacity="0" result="BackgroundImageFix"/>
<feBlend mode="normal" in="SourceGraphic" in2="BackgroundImageFix" result="shape"/>
<feGaussianBlur stdDeviation="7.5" result="effect1_foregroundBlur_17_2"/>
</filter>
<filter id="filter33_f_17_2" x="328.22" y="183" width="38.5596" height="43.5676" filterUnits="userSpaceOnUse" color-interpolation-filters="sRGB">
<feFlood flood-opacity="0" result="BackgroundImageFix"/>
<feBlend mode="normal" in="SourceGraphic" in2="BackgroundImageFix" result="shape"/>
<feGaussianBlur stdDeviation="7.5" result="effect1_foregroundBlur_17_2"/>
</filter>
<filter id="filter34_f_17_2" x="319.22" y="112" width="38.5596" height="43.5676" filterUnits="userSpaceOnUse" color-interpolation-filters="sRGB">
<feFlood flood-opacity="0" result="BackgroundImageFix"/>
<feBlend mode="normal" in="SourceGraphic" in2="BackgroundImageFix" result="shape"/>
<feGaussianBlur stdDeviation="7.5" result="effect1_foregroundBlur_17_2"/>
</filter>
<filter id="filter35_f_17_2" x="253.22" y="127" width="38.5596" height="43.5676" filterUnits="userSpaceOnUse" color-interpolation-filters="sRGB">
<feFlood flood-opacity="0" result="BackgroundImageFix"/>
<feBlend mode="normal" in="SourceGraphic" in2="BackgroundImageFix" result="shape"/>
<feGaussianBlur stdDeviation="7.5" result="effect1_foregroundBlur_17_2"/>
</filter>
<filter id="filter36_f_17_2" x="215.22" y="91" width="38.5596" height="43.5676" filterUnits="userSpaceOnUse" color-interpolation-filters="sRGB">
<feFlood flood-opacity="0" result="BackgroundImageFix"/>
<feBlend mode="normal" in="SourceGraphic" in2="BackgroundImageFix" result="shape"/>
<feGaussianBlur stdDeviation="7.5" result="effect1_foregroundBlur_17_2"/>
</filter>
<filter id="filter37_f_17_2" x="151.22" y="91" width="38.5596" height="43.5676" filterUnits="userSpaceOnUse" color-interpolation-filters="sRGB">
<feFlood flood-opacity="0" result="BackgroundImageFix"/>
<feBlend mode="normal" in="SourceGraphic" in2="BackgroundImageFix" result="shape"/>
<feGaussianBlur stdDeviation="7.5" result="effect1_foregroundBlur_17_2"/>
</filter>
<filter id="filter38_f_17_2" x="218.464" y="220.748" width="14.0723" height="15.667" filterUnits="userSpaceOnUse" color-interpolation-filters="sRGB">
<feFlood flood-opacity="0" result="BackgroundImageFix"/>
<feBlend mode="normal" in="SourceGraphic" in2="BackgroundImageFix" result="shape"/>
<feGaussianBlur stdDeviation="2" result="effect1_foregroundBlur_17_2"/>
</filter>
<filter id="filter39_f_17_2" x="220.22" y="1005" width="38.5596" height="43.5676" filterUnits="userSpaceOnUse" color-interpolation-filters="sRGB">
<feFlood flood-opacity="0" result="BackgroundImageFix"/>
<feBlend mode="normal" in="SourceGraphic" in2="BackgroundImageFix" result="shape"/>
<feGaussianBlur stdDeviation="7.5" result="effect1_foregroundBlur_17_2"/>
</filter>
<filter id="filter40_f_17_2" x="148.22" y="1039" width="38.5596" height="43.5676" filterUnits="userSpaceOnUse" color-interpolation-filters="sRGB">
<feFlood flood-opacity="0" result="BackgroundImageFix"/>
<feBlend mode="normal" in="SourceGraphic" in2="BackgroundImageFix" result="shape"/>
<feGaussianBlur stdDeviation="7.5" result="effect1_foregroundBlur_17_2"/>
</filter>
<filter id="filter41_f_17_2" x="566.22" y="574" width="22.5596" height="27.5676" filterUnits="userSpaceOnUse" color-interpolation-filters="sRGB">
<feFlood flood-opacity="0" result="BackgroundImageFix"/>
<feBlend mode="normal" in="SourceGraphic" in2="BackgroundImageFix" result="shape"/>
<feGaussianBlur stdDeviation="3.5" result="effect1_foregroundBlur_17_2"/>
</filter>
<filter id="filter42_f_17_2" x="403.464" y="715.748" width="18.0723" height="19.667" filterUnits="userSpaceOnUse" color-interpolation-filters="sRGB">
<feFlood flood-opacity="0" result="BackgroundImageFix"/>
<feBlend mode="normal" in="SourceGraphic" in2="BackgroundImageFix" result="shape"/>
<feGaussianBlur stdDeviation="3" result="effect1_foregroundBlur_17_2"/>
</filter>
<filter id="filter43_f_17_2" x="397.95" y="649.786" width="11.0996" height="11.7139" filterUnits="userSpaceOnUse" color-interpolation-filters="sRGB">
<feFlood flood-opacity="0" result="BackgroundImageFix"/>
<feBlend mode="normal" in="SourceGraphic" in2="BackgroundImageFix" result="shape"/>
<feGaussianBlur stdDeviation="1.5" result="effect1_foregroundBlur_17_2"/>
</filter>
<filter id="filter44_f_17_2" x="325.464" y="657.748" width="24.0723" height="25.667" filterUnits="userSpaceOnUse" color-interpolation-filters="sRGB">
<feFlood flood-opacity="0" result="BackgroundImageFix"/>
<feBlend mode="normal" in="SourceGraphic" in2="BackgroundImageFix" result="shape"/>
<feGaussianBlur stdDeviation="4.5" result="effect1_foregroundBlur_17_2"/>
</filter>
<filter id="filter45_f_17_2" x="289.464" y="623.748" width="20.0723" height="21.667" filterUnits="userSpaceOnUse" color-interpolation-filters="sRGB">
<feFlood flood-opacity="0" result="BackgroundImageFix"/>
<feBlend mode="normal" in="SourceGraphic" in2="BackgroundImageFix" result="shape"/>
<feGaussianBlur stdDeviation="3.5" result="effect1_foregroundBlur_17_2"/>
</filter>
<filter id="filter46_f_17_2" x="227.464" y="625.748" width="16.0723" height="17.667" filterUnits="userSpaceOnUse" color-interpolation-filters="sRGB">
<feFlood flood-opacity="0" result="BackgroundImageFix"/>
<feBlend mode="normal" in="SourceGraphic" in2="BackgroundImageFix" result="shape"/>
<feGaussianBlur stdDeviation="2.5" result="effect1_foregroundBlur_17_2"/>
</filter>
<filter id="filter47_f_17_2" x="278.22" y="734" width="24.5596" height="29.5676" filterUnits="userSpaceOnUse" color-interpolation-filters="sRGB">
<feFlood flood-opacity="0" result="BackgroundImageFix"/>
<feBlend mode="normal" in="SourceGraphic" in2="BackgroundImageFix" result="shape"/>
<feGaussianBlur stdDeviation="4" result="effect1_foregroundBlur_17_2"/>
</filter>
<filter id="filter48_f_17_2" x="244.22" y="163" width="38.5596" height="43.5676" filterUnits="userSpaceOnUse" color-interpolation-filters="sRGB">
<feFlood flood-opacity="0" result="BackgroundImageFix"/>
<feBlend mode="normal" in="SourceGraphic" in2="BackgroundImageFix" result="shape"/>
<feGaussianBlur stdDeviation="7.5" result="effect1_foregroundBlur_17_2"/>
</filter>
<radialGradient id="paint0_radial_17_2" cx="0" cy="0" r="1" gradientUnits="userSpaceOnUse" gradientTransform="translate(990 540) rotate(90) scale(540 990)">
<stop offset="0.0142262" stop-color="#FAF102"/>
<stop offset="0.0583429" stop-color="#898A15"/>
<stop offset="0.0898548" stop-color="#5F6921"/>
<stop offset="0.150778" stop-color="#333D4F"/>
<stop offset="0.24625" stop-color="#1F2D5D"/>
<stop offset="0.423462" stop-color="#101D5E"/>
<stop offset="0.535529" stop-color="#16185B"/>
<stop offset="0.709712" stop-color="#120A33"/>
<stop offset="0.809411" stop-color="#080C22"/>
<stop offset="0.898627" stop-color="#05011E"/>
</radialGradient>
</defs>
</svg>
