<?xml version="1.0" encoding="UTF-8"?>
<svg id="Layer_1" data-name="Layer 1" xmlns="http://www.w3.org/2000/svg" viewBox="0 0 577.8 136.51">
  <defs>
    <style>
      .cls-1 {
        fill: #ed1c24;
      }

      .cls-1, .cls-2, .cls-3 {
        stroke: #5c090f;
        stroke-miterlimit: 10;
        stroke-width: .75px;
      }

      .cls-2 {
        fill: #ec2027;
      }

      .cls-4 {
        stroke-width: 0px;
      }

      .cls-4, .cls-3 {
        fill: #f8c1d9;
      }
    </style>
  </defs>
  <g>
    <path class="cls-3" d="M108.87,59.14c0,23.97-7.95,41.94-21.96,52.12l-17.03-34.44,6.16-3.04-15.14-11.93-15.13-11.93.29,19.27.29,19.27,6.15-3.05,16.48,33.35c-5.21,1.22-10.22,1.9-15,2.04C20.78,120.52.38,97.64.38,59.14S20.56.38,54.62.38s54.25,20.83,54.25,58.77Z"/>
    <polygon class="cls-2" points="94.89 127.41 77.51 136.01 68.98 118.77 52.49 85.41 46.35 88.46 46.06 69.2 45.77 49.92 60.9 61.85 76.04 73.78 69.88 76.83 86.91 111.27 94.89 127.41"/>
  </g>
  <path class="cls-1" d="M576.99,98.73l-10.59-10.89h-3.57l-11.03-12.97,12.77-15.63h11.65v-15.12l-11.24-11.24h-34.83v2.96l-2.96-2.96h-43.01v15.22l10.62,11.03h8.48l6.64,7.97-15.73,20.74h-10.83v10.83l-10.54-10.83h-1.02l-16.24-40.45-14.4-14.51h-19.31l-21.66,54.96h-9.7v10.58l-10.06-9.86v-29.32h10.62v-15.32l-11.24-11.03h-34.73l-14.81,32.59-9.81-21.25-11.24-11.34h-35.45v10.56l-10.47-10.56h-42.5v15.22l10.32,10.52v29.22h-9.65v-15.12l-13.86-14.51h-22.53v22.53h-14.89v-36.39h13.86v-19.04l-14.12-14.25h-54.52v19.3l13.08,13.6v36.78h-13.08v19.43l14.12,14.12h91.95v-2.2c0-3.05,3.69-4.58,5.84-2.42l4.62,4.62h42.5v-2.08c0-3.06,3.72-4.58,5.86-2.4l4.4,4.48h36.67v-7.76l7.76,7.76h12.77l2.04-4.39,4.39,4.39h42.8v-2.08c0-3.06,3.72-4.58,5.86-2.4l4.4,4.48h32.79v-7.97l7.97,7.97h41.58v-2.54c0-3.04,3.67-4.57,5.83-2.43l5.01,4.97h35.24v-3.17l3.17,3.17h44.44v-15.12l-.44-.45Z"/>
  <g>
    <polygon class="cls-4" points="221.47 47.14 231.69 47.14 231.69 88.81 221.47 88.81 221.47 98.68 262.03 98.68 262.03 88.81 251.61 88.81 251.61 47.14 262.03 47.14 262.03 33.76 221.47 33.76 221.47 47.14"/>
    <polygon class="cls-4" points="327.14 74.1 308.25 33.76 274.54 33.76 274.54 47.14 284.65 47.14 284.65 88.81 274.54 88.81 274.54 98.68 309.27 98.68 309.27 88.81 299.56 88.81 299.56 63.07 317 98.68 331.34 98.68 348.29 63.38 348.29 88.81 338.38 88.81 338.38 98.68 378.63 98.68 378.63 88.81 368.11 88.81 368.11 47.14 378.63 47.14 378.63 33.76 345.53 33.76 327.14 74.1"/>
    <path class="cls-4" d="M440.17,33.76h-17.98l-21.66,55.06h-9.29v9.87h31.57v-9.87h-7.36l1.63-4.49h21.66l1.53,4.49h-8.38v9.87h39.53v-9.87h-9.5l-21.76-55.06ZM421.48,71.45l6.44-18.18,6.33,18.18h-12.77Z"/>
    <polygon class="cls-4" points="538.26 68.59 554.4 47.14 563.79 47.14 563.79 33.76 530.8 33.76 530.8 47.14 536.83 47.14 528.96 57.56 520.17 47.14 525.9 47.14 525.9 33.76 484.73 33.76 484.73 47.14 494.23 47.14 510.88 67.06 494.33 88.81 484.11 88.81 484.11 98.68 518.03 98.68 518.03 88.81 512.1 88.81 520.07 78.09 528.86 88.81 522.73 88.81 522.73 98.68 565.02 98.68 565.02 88.81 554.91 88.81 538.26 68.59"/>
    <polygon class="cls-4" points="186.02 82 154.55 82 154.55 29.16 168.54 29.16 168.54 12.2 116.47 12.2 116.47 29.16 129.3 29.16 129.3 82 116.47 82 116.47 98.84 129.31 98.84 129.31 98.68 205.97 98.68 205.97 59.47 186.02 59.47 186.02 82"/>
  </g>
</svg>